# xmcd
#
# Track frame offsets:
#  150
#  15871
#  29398
#  40971
#  52677
#  62723
#  73537
#  83788
#  94924
#  107190
#  118000
#  129773
#  139816
#  152855
#
# Disc length: 2254 seconds
#
# Revision: 0
# Processed by: cddbd v1.5.1PL2 Copyright (c) Steve Scherf et al.
# Submitted via: Collectorz.com_Music_Collector 6.9
#
DISCID=b008cc0e
DTITLE=Black Hills Country Band - In the shadow of the Black Hills
DYEAR=1989
DGENRE=
TTITLE0=Time for coming home
TTITLE1=Lonesome ride
TTITLE2=Dream away
TTITLE3=California sunset
TTITLE4=Are you ready
TTITLE5=All keyed up
TTITLE6=In the shadow of the Black Hills
TTITLE7=Hold on tight to country music
TTITLE8=Corrida
TTITLE9=They call me Mr. Lonely
TTITLE10=It's so easy
TTITLE11=Better move it on home
TTITLE12=Rollin' steel
TTITLE13=Nobody wants to be alone
EXTD=
EXTT0=
EXTT1=
EXTT2=
EXTT3=
EXTT4=
EXTT5=
EXTT6=
EXTT7=
EXTT8=
EXTT9=
EXTT10=
EXTT11=
EXTT12=
EXTT13=
PLAYORDER=
